HIERARCHY
ROOT root
{
	OFFSET	0	13.1	24.9
	CHANNELS 6  Xposition Yposition Zposition Xrotation Yrotation Zrotation
	JOINT spine_1
	{
		OFFSET	0	9.99999	0
		CHANNELS 3  Xrotation Yrotation Zrotation
		JOINT spine_2
		{
			OFFSET	0	112	-10
			CHANNELS 3  Xrotation Yrotation Zrotation
			JOINT spine_3
			{
				OFFSET	0	206.5	19.3
				CHANNELS 3  Xrotation Yrotation Zrotation
				JOINT spine_4
				{
					OFFSET	0	110.4	14.6
					CHANNELS 3  Xrotation Yrotation Zrotation
					JOINT neck_1
					{
						OFFSET	0	71.8	-50.3
						CHANNELS 3  Xrotation Yrotation Zrotation
						JOINT neck_2
						{
							OFFSET	0	86.2	-25.8
							CHANNELS 3  Xrotation Yrotation Zrotation
							JOINT head_ee
							{
								OFFSET	0	179.8	-8.7
								CHANNELS 3  Xrotation Yrotation Zrotation
								End Site
								{
									OFFSET	1	0	0
								}
							}
						}
					}
					JOINT left_clavicle
					{
						OFFSET	-43.2	22.4	-70.8
						CHANNELS 3  Xrotation Yrotation Zrotation
						JOINT left_shoulder
						{
							OFFSET	-93.9	-5.79999	48.7
							CHANNELS 3  Xrotation Yrotation Zrotation
							JOINT left_elbow
							{
								OFFSET	-291.4	-30.8	15.2
								CHANNELS 3  Xrotation Yrotation Zrotation
								JOINT left_lowarm_twist
								{
									OFFSET	-110.7	-3.89999	13.6
									CHANNELS 3  Xrotation Yrotation Zrotation
									JOINT left_hand
									{
										OFFSET	-110.7	-3.89999	13.6
										CHANNELS 3  Xrotation Yrotation Zrotation
										JOINT left_ee
										{
											OFFSET	-80.8	-5.10001	12.1
											CHANNELS 3  Xrotation Yrotation Zrotation
											End Site
											{
												OFFSET	1	0	0
											}
										}
									}
								}
							}
						}
					}
					JOINT right_clavicle
					{
						OFFSET	43.2	22.4	-70.8
						CHANNELS 3  Xrotation Yrotation Zrotation
						JOINT right_shoulder
						{
							OFFSET	93.9	-5.79999	48.7
							CHANNELS 3  Xrotation Yrotation Zrotation
							JOINT right_elbow
							{
								OFFSET	291.4	-30.8	15.2
								CHANNELS 3  Xrotation Yrotation Zrotation
								JOINT right_lowarm_twist
								{
									OFFSET	110.7	-3.89999	13.6
									CHANNELS 3  Xrotation Yrotation Zrotation
									JOINT right_hand
									{
										OFFSET	110.7	-3.89999	13.6
										CHANNELS 3  Xrotation Yrotation Zrotation
										JOINT right_ee
										{
											OFFSET	80.8	-5.10001	12.1
											CHANNELS 3  Xrotation Yrotation Zrotation
											End Site
											{
												OFFSET	1	0	0
											}
										}
									}
								}
							}
						}
					}
				}
			}
		}
	}
	JOINT left_hip
	{
		OFFSET	-82.8	-127.5	0.300001
		CHANNELS 3  Xrotation Yrotation Zrotation
		JOINT left_knee
		{
			OFFSET	-28.2	-396.7	2.2
			CHANNELS 3  Xrotation Yrotation Zrotation
			JOINT left_ankle
			{
				OFFSET	-11.7	-411.3	35.4
				CHANNELS 3  Xrotation Yrotation Zrotation
				JOINT left_toes
				{
					OFFSET	0	-60	-88.6
					CHANNELS 3  Xrotation Yrotation Zrotation
					JOINT left_foot_ee
					{
						OFFSET	-22.5	-16.5	-42.2
						CHANNELS 3  Xrotation Yrotation Zrotation
						End Site
						{
							OFFSET	1	0	0
						}
					}
				}
			}
		}
	}
	JOINT right_hip
	{
		OFFSET	82.8	-127.5	0.300001
		CHANNELS 3  Xrotation Yrotation Zrotation
		JOINT right_knee
		{
			OFFSET	28.2	-396.7	2.2
			CHANNELS 3  Xrotation Yrotation Zrotation
			JOINT right_ankle
			{
				OFFSET	11.7	-411.3	35.4
				CHANNELS 3  Xrotation Yrotation Zrotation
				JOINT right_toes
				{
					OFFSET	0	-60	-88.6
					CHANNELS 3  Xrotation Yrotation Zrotation
					JOINT right_foot_ee
					{
						OFFSET	22.5	-16.5	-42.2
						CHANNELS 3  Xrotation Yrotation Zrotation
						End Site
						{
							OFFSET	1	0	0
						}
					}
				}
			}
		}
	}
}
MOTION
Frames: 16
Frame Time: 0.02
2808.62 693.543 -1615.65 22.1802 69.6906 -23.7875 -0.28602 0.208018 1.43479 -0.284882 0.116307 1.44511 -0.281265 -0.197102 1.43633 -0.284143 0.032188 1.44943 -5.10906 19.3327 1.73287 -4.85878 34.3969 5.14195 -0.0 0.0 -0.0 4.33199 21.2467 8.71173 0.965824 -13.1708 59.338 2.0609 -45.5874 0.866131 64.051 -2.14755 -7.46866 -5.2422 25.5687 -19.7393 -0.0 0.0 -0.0 10.9645 -5.8671 -21.1684 -14.1095 28.2175 -66.0569 0.158063 4.47722 -0.00617882 9.54896 -0.237305 1.1953 2.3748 -29.9227 -25.1519 0.0 0.0 0.0 -12.1453 25.1958 3.23905 -5.47535 0.186398 0.819312 26.4103 -17.2202 -3.81327 -0.263187 0.0 0.0 -0.0 0.0 -0.0 4.43144 -55.5454 8.57404 2.3051 0.101764 0.339047 41.2672 -14.74 5.04065 10.7715 -0.0 -0.0 0.0 0.0 0.0 
2791.7 692.882 -1617.23 21.9718 67.4514 -23.4278 -0.609405 0.47281 1.49529 -0.60824 0.376714 1.52233 -0.597183 0.0320571 1.56791 -0.600506 0.279248 1.54319 -5.42966 20.1601 1.81385 -5.20319 35.9468 5.47578 -0.0 0.0 -0.0 4.11892 20.6402 8.4044 3.75368 -14.9453 58.784 2.21274 -47.6194 0.976482 65.487 -2.28601 -7.59011 -4.73292 25.1988 -16.9543 -0.0 0.0 -0.0 10.7933 -5.83046 -20.8311 -14.806 27.0362 -65.5605 0.124861 3.53946 -0.00385788 7.8963 -0.210552 0.985895 1.96144 -29.9583 -22.7001 0.0 0.0 0.0 -14.4448 25.4431 3.85178 -6.28933 0.207387 0.942465 26.7999 -15.4037 -3.80941 3.52442 -0.0 -0.0 -0.0 0.0 -0.0 8.08598 -59.238 12.0391 -0.654721 -0.0264048 -0.0970044 41.7787 -15.3897 5.09527 11.7824 -0.0 -0.0 0.0 0.0 0.0 
2780.0 694.377 -1614.33 20.1516 67.2527 -21.3305 -0.768861 0.513807 1.45571 -0.76778 0.420146 1.48545 -0.755802 0.0782957 1.54172 -0.758975 0.320772 1.51002 -4.53798 20.6506 1.93149 -4.16085 36.5719 5.3793 -0.0 0.0 -0.0 4.1443 20.0149 8.44424 6.26972 -16.9916 58.4966 2.40263 -49.9555 1.11936 65.9461 -2.33092 -7.62821 -4.30961 24.0793 -15.1969 -0.0 0.0 -0.0 11.0068 -5.2792 -21.3136 -16.0295 23.5493 -63.8354 0.134033 3.79874 -0.00444491 8.4178 -0.219647 1.05189 1.96374 -29.6661 -22.6503 0.0 0.0 0.0 -15.9497 25.1705 4.6635 -3.82357 0.138436 0.570363 26.1873 -15.7968 -3.74669 4.41872 -0.0 -0.0 -0.0 0.0 -0.0 3.3017 -56.5709 6.96715 2.90217 0.130345 0.426191 41.8725 -13.7461 5.07823 14.6287 -0.0 -0.0 0.0 0.0 0.0 
2776.36 697.553 -1611.47 18.8592 67.5369 -20.291 -0.872232 0.496486 1.51248 -0.871048 0.399249 1.54099 -0.859124 0.042659 1.59129 -0.862538 0.293407 1.56459 -5.72856 20.3057 2.06931 -5.54604 36.0977 5.86067 -0.0 0.0 -0.0 3.70988 19.0273 7.78818 8.76167 -18.559 59.0052 2.89267 -55.0795 1.50861 66.6682 -2.40218 -7.68741 -3.96312 23.4365 -13.5518 -0.0 0.0 -0.0 11.0781 -5.42114 -21.4422 -16.4083 22.8055 -62.8553 0.131873 3.7377 -0.00430286 8.49172 -0.220887 1.06125 1.83894 -29.506 -21.881 0.0 0.0 0.0 -16.0485 25.0177 5.42587 -3.07391 0.114302 0.457844 24.1384 -14.5615 -3.46591 4.94494 -0.0 -0.0 -0.0 0.0 -0.0 2.8712 -51.7933 5.61026 2.07769 0.0911174 0.305778 42.0108 -10.0677 5.04923 15.9315 -0.0 -0.0 0.0 0.0 0.0 
2767.3 696.33 -1607.92 20.21 68.5667 -21.2819 -1.17346 0.362982 1.42016 -1.17238 0.271887 1.44038 -1.16448 -0.066675 1.46429 -1.16743 0.165394 1.45645 -3.7087 20.1489 2.38854 -3.24705 35.1018 5.50609 -0.0 0.0 -0.0 3.78791 17.5964 7.89074 12.2548 -20.0426 58.9879 2.94893 -55.5954 1.55489 66.1044 -2.34648 -7.64127 -3.80566 21.2837 -13.9434 -0.0 0.0 -0.0 10.9359 -3.77363 -21.3139 -17.3919 21.2464 -62.1137 0.139621 3.95662 -0.00482278 7.39529 -0.20125 0.922573 1.31413 -29.4404 -18.8268 0.0 0.0 0.0 -18.8347 24.821 6.35859 1.73572 -0.0753577 -0.255676 23.2825 -14.0829 -3.34863 4.06708 -0.0 -0.0 -0.0 0.0 -0.0 6.02447 -49.0413 7.02273 -4.7406 -0.16595 -0.708407 41.2977 -5.30086 4.96843 18.4384 -0.0 -0.0 0.0 0.0 0.0 
2741.11 696.752 -1599.53 30.1862 71.8969 -32.4903 -1.86006 -0.057313 1.67721 -1.85851 -0.163907 1.67016 -1.86211 -0.563108 1.58092 -1.86546 -0.306401 1.64998 -3.03471 19.9265 -0.0909853 -2.4044 36.4209 2.67667 -0.0 0.0 -0.0 4.53526 15.5826 9.06237 14.8273 -21.1805 59.6126 3.27241 -58.3171 1.82612 66.7069 -2.40601 -7.69055 -3.44123 22.6189 -10.9577 -0.0 0.0 -0.0 10.7529 -4.43917 -20.8835 -19.7102 18.6672 -61.127 0.146391 4.14782 -0.00530117 7.73068 -0.207538 0.964953 1.17035 -29.3052 -17.9706 0.0 0.0 0.0 -22.3953 24.4652 8.27617 -0.656277 0.0264664 0.0972353 23.2474 -15.6739 -3.38123 4.60683 -0.0 -0.0 -0.0 0.0 -0.0 9.73782 -40.7859 4.54205 -8.06229 -0.247033 -1.21164 32.8683 6.9829 4.29284 17.5104 -0.0 -0.0 0.0 0.0 0.0 
2725.6 695.366 -1592.55 34.7775 73.0017 -36.8877 -2.45795 -0.220367 1.49785 -2.45675 -0.315222 1.4808 -2.46407 -0.678387 1.35351 -2.46634 -0.456136 1.44364 -0.955876 20.1824 -0.0578366 -0.00117734 36.3955 2.06128 -0.0 0.0 -0.0 4.45379 14.4817 8.92901 16.8789 -23.3163 60.5486 3.53969 -60.2888 2.05599 65.4869 -2.28601 -7.59011 -3.00576 21.8217 -8.83813 -0.0 0.0 -0.0 10.9217 -4.01072 -21.2637 -22.149 17.6344 -58.7574 0.171404 4.85338 -0.00726394 7.7646 -0.208161 0.969242 0.876804 -29.1887 -16.2761 0.0 0.0 0.0 -24.8324 24.1171 9.09036 0.207003 -0.00857918 -0.0306078 23.2575 -16.2567 -3.39692 4.64576 -0.0 -0.0 -0.0 0.0 -0.0 12.8526 -31.9996 6.10051 -15.3412 -0.322027 -2.32524 24.3419 7.01766 3.34945 21.3825 -0.0 -0.0 0.0 0.0 0.0 
2710.9 693.603 -1589.76 39.2031 73.3598 -41.6159 -2.77826 -0.245275 1.53328 -2.77702 -0.342333 1.51457 -2.78517 -0.720869 1.37533 -2.78746 -0.49464 1.4719 -0.303065 19.5172 -0.796586 0.721632 35.6252 1.00507 -0.0 0.0 -0.0 4.42386 13.1918 8.8724 19.2067 -24.6462 61.1403 3.65626 -61.0803 2.15763 64.7982 -2.21922 -7.53229 -2.65974 21.2958 -7.07769 -0.0 0.0 -0.0 11.0636 -3.50194 -21.5988 -23.8697 16.402 -58.358 0.185711 5.25631 -0.0085246 6.8719 -0.190941 0.856509 0.524598 -29.2185 -14.3141 0.0 0.0 0.0 -27.0131 23.9015 9.77298 0.979317 -0.0415641 -0.144531 23.6403 -16.2196 -3.44431 4.49193 -0.0 -0.0 -0.0 0.0 -0.0 16.3126 -30.9361 7.65583 -20.61 -0.287888 -3.13264 15.2088 8.32613 2.20348 23.5395 -0.0 -0.0 0.0 0.0 0.0 
2696.33 692.541 -1587.18 38.8208 73.5147 -41.1769 -3.10686 -0.263425 1.34641 -3.10592 -0.348559 1.32692 -3.11333 -0.685349 1.18851 -3.11497 -0.489061 1.28182 0.884792 19.3047 -1.71553 2.12557 35.7141 -0.392058 -0.0 0.0 -0.0 4.79453 12.5941 9.49282 21.164 -25.4492 61.589 3.92202 -62.7473 2.39212 64.3196 -2.17322 -7.49164 -2.406 20.8924 -5.78753 -0.0 0.0 -0.0 11.2939 -3.61727 -22.0597 -25.1142 15.469 -56.788 0.205747 5.81969 -0.0104582 6.18186 -0.176427 0.769557 0.231031 -29.315 -12.7209 0.0 0.0 0.0 -28.3124 23.8357 10.3574 1.79337 -0.0779935 -0.264129 23.4119 -15.9046 -3.40764 3.8921 -0.0 -0.0 -0.0 0.0 -0.0 18.758 -27.7873 8.3747 -23.3523 -0.240791 -3.55076 9.04092 10.2618 1.35717 25.2288 -0.0 -0.0 0.0 0.0 0.0 
2693.61 693.925 -1588.99 31.258 72.2227 -33.6316 -3.22356 0.389905 1.37186 -3.22256 0.301829 1.39389 -3.21356 -0.077812 1.42406 -3.21636 0.148046 1.41848 -0.197232 18.5291 -0.621588 0.713223 33.6794 1.10449 -0.0 0.0 -0.0 5.1343 12.2576 10.0702 23.5897 -25.4498 61.3791 3.99698 -63.1857 2.45889 63.046 -2.05248 -7.38163 -2.38789 20.0683 -6.10268 -0.0 0.0 -0.0 11.5212 -3.19743 -22.5682 -24.3364 15.79 -57.6044 0.195646 5.53581 -0.00945891 5.39168 -0.158522 0.670207 0.0752256 -28.9833 -11.7518 0.0 0.0 0.0 -27.4634 23.8802 10.2256 2.67128 -0.119185 -0.392526 21.9907 -18.2876 -3.28663 2.63291 -0.0 -0.0 -0.0 0.0 -0.0 19.6151 -28.9789 5.03171 -18.3002 -0.311996 -2.77907 3.35712 11.3117 0.516965 25.6249 -0.0 -0.0 0.0 0.0 0.0 
2677.66 684.199 -1590.75 30.8294 69.4365 -32.6448 -3.61693 0.565825 1.31479 -3.6161 0.481023 1.34812 -3.60296 0.0974584 1.42803 -3.60567 0.321744 1.39473 0.265555 18.4471 -2.42345 1.38166 34.8781 -1.03218 -0.0 0.0 -0.0 5.3317 13.4764 10.3902 26.2949 -26.187 61.3058 3.89873 -62.6083 2.37143 63.8911 -2.13233 -7.45493 -2.26153 20.2397 -5.26271 -0.0 0.0 -0.0 11.7012 -2.79639 -22.9807 -25.7429 17.3661 -55.9791 0.211137 5.97108 -0.0110118 5.50508 -0.161176 0.684451 0.191033 -28.8848 -12.3571 0.0 0.0 0.0 -30.0051 23.0406 10.8074 1.65921 -0.0718723 -0.244453 24.575 -15.356 -3.53899 1.67055 -0.0 -0.0 -0.0 0.0 -0.0 16.6367 -28.4599 0.53341 -8.11469 -0.248077 -1.21961 -6.52255 28.1485 -1.20772 21.6753 -0.0 -0.0 0.0 0.0 0.0 
2669.41 682.675 -1592.76 31.0059 69.8891 -32.2607 -3.75013 0.78067 1.16712 -3.74965 0.704827 1.21443 -3.7331 0.346104 1.3608 -3.73525 0.556655 1.28908 -2.00903 16.7644 -0.633706 -1.45397 30.8531 1.43071 -0.0 0.0 -0.0 5.21248 12.6207 10.2 29.0933 -28.0125 63.4976 3.7807 -61.8835 2.26697 64.5032 -2.19083 -7.50728 -2.35695 21.1348 -5.37368 -0.0 0.0 -0.0 11.9183 -3.18619 -23.3945 -26.4611 18.8173 -56.2987 0.188638 5.33867 -0.00879476 4.03208 -0.124511 0.499864 0.0810349 -29.0531 -11.8076 0.0 0.0 0.0 -30.6811 23.1319 10.7711 3.02596 -0.136385 -0.444222 24.0655 -12.971 -3.42136 1.14108 -0.0 -0.0 -0.0 0.0 -0.0 16.6672 -28.1454 -2.66215 -2.03167 -0.0783048 -0.301943 -12.8541 30.6517 -2.48794 18.4476 -0.0 -0.0 0.0 0.0 0.0 
2660.02 683.161 -1596.33 26.1782 70.1522 -27.3129 -3.63126 0.554433 1.32211 -3.63041 0.469188 1.35471 -3.61749 0.0839133 1.43118 -3.62022 0.308867 1.39998 -0.440897 18.638 -0.835152 0.469041 34.0988 0.947067 -0.0 0.0 -0.0 5.32412 13.2605 10.3807 29.9651 -27.6618 62.3536 3.60797 -60.7571 2.11543 64.6024 -2.20035 -7.5157 -2.13434 21.5326 -3.86492 -0.0 0.0 -0.0 12.0106 -3.01441 -23.605 -25.29 20.3974 -56.3188 0.179432 5.07953 -0.00795893 4.52416 -0.137288 0.561424 0.536823 -29.1684 -14.3665 0.0 0.0 0.0 -29.2943 22.1513 9.87968 2.89228 -0.129864 -0.42475 24.6433 -14.9765 -3.53806 0.477095 -0.0 -0.0 -0.0 0.0 -0.0 15.4202 -28.3752 -5.48342 4.75947 0.225048 0.695336 -19.8818 32.2367 -3.95719 15.4829 -0.0 -0.0 0.0 0.0 0.0 
2651.19 678.761 -1603.05 26.5748 70.2767 -27.1126 -3.76097 0.627108 1.1716 -3.76037 0.551291 1.20912 -3.74718 0.199495 1.3138 -3.74936 0.404465 1.26582 -0.753304 17.3143 -0.657127 -0.0239823 31.6305 1.12737 -0.0 0.0 -0.0 5.4404 12.8182 10.5836 31.0521 -28.3765 63.0439 3.51564 -60.1206 2.03512 64.5797 -2.19818 -7.51378 -2.34762 21.3788 -5.19419 -0.0 0.0 -0.0 12.259 -1.32926 -24.2977 -24.8653 21.6509 -57.6359 0.180163 5.10011 -0.00802373 3.60509 -0.112996 0.446536 0.210514 -29.041 -12.5169 0.0 0.0 0.0 -28.9665 21.6403 8.78843 2.52618 -0.112241 -0.371348 26.8438 -12.4619 -3.74285 0.306951 -0.0 -0.0 -0.0 0.0 -0.0 14.2637 -28.6191 -7.2914 5.70206 0.276444 0.830744 -20.7839 31.4558 -4.08905 14.9637 -0.0 -0.0 0.0 0.0 0.0 
2635.63 673.017 -1607.3 27.2344 70.5887 -26.9184 -3.72893 0.157964 1.15208 -3.7282 0.0843386 1.1598 -3.72539 -0.235818 1.1387 -3.72719 -0.0530342 1.16165 0.935877 16.5952 -2.44624 1.90528 31.4577 -1.3396 -0.0 0.0 -0.0 3.7296 16.314 7.78027 32.0015 -29.5564 65.9146 3.65342 -61.0615 2.15515 65.2901 -2.26685 -7.57366 -2.03199 20.2421 -3.89784 -0.0 0.0 -0.0 12.0609 -1.15086 -23.8919 -23.1545 21.3552 -58.1656 0.176245 4.98977 -0.0076793 3.53593 -0.111094 0.437907 0.346181 -28.7144 -13.161 0.0 0.0 0.0 -30.4203 20.5483 7.84337 2.99314 -0.134779 -0.439442 28.0564 -12.2917 -3.87902 -1.16449 0.0 0.0 -0.0 0.0 -0.0 13.9111 -29.0364 -8.18957 4.89968 0.232551 0.71553 -21.0745 29.9208 -4.05602 13.1086 -0.0 -0.0 0.0 0.0 0.0 
2608.94 670.349 -1611.09 27.8739 71.0866 -27.7294 -3.82866 -0.101097 1.37733 -3.82763 -0.188527 1.36811 -3.831 -0.55763 1.26347 -3.83306 -0.35111 1.33566 2.45127 16.5163 -2.92331 3.61222 31.4298 -2.28006 -0.0 0.0 -0.0 3.54794 19.5135 7.55073 32.2379 -30.7216 67.7211 3.61006 -60.7712 2.11725 65.8699 -2.32345 -7.62192 -1.97278 22.1056 -2.64042 -0.0 0.0 -0.0 12.0245 -0.37421 -23.8817 -21.1118 20.2779 -59.5466 0.157254 4.45441 -0.00611583 2.14983 -0.0707703 0.265448 0.481823 -28.8865 -13.9716 0.0 0.0 0.0 -30.2266 18.6047 7.05889 -0.532363 0.0215546 0.0788534 30.8744 -11.8616 -4.18208 -1.78392 0.0 0.0 -0.0 0.0 -0.0 12.6978 -29.1026 -8.87437 5.34 0.256438 0.77883 -19.7928 28.1986 -3.72119 13.0783 -0.0 -0.0 0.0 0.0 0.0 
